<svg xmlns="http://www.w3.org/2000/svg" viewBox="0 0 64 64">
  <circle cx="32" cy="32" r="30" fill="#25D366"/>
  <path fill="#fff" d="M47.2 16.7A21.3 21.3 0 0 0 32 10.4c-11.8 0-21.4 9.6-21.4 21.4 0 3.8 1 7.5 2.9 10.7L10.3 53.6l11.4-3a21.3 21.3 0 0 0 10.3 2.6h.1c11.8 0 21.4-9.6 21.4-21.4 0-5.7-2.2-11-6.3-15.1Zm-15.2 33c-3.3 0-6.5-.9-9.3-2.5l-.7-.4-6.8 1.8 1.8-6.6-.4-.7a17.6 17.6 0 1 1 15.4 8.4Zm9.6-13.2c-.5-.3-3-1.5-3.5-1.7-.5-.2-.8-.3-1.2.3-.3.5-1.3 1.7-1.6 2-.3.3-.6.4-1.1.1-3-.1-5.6-2.1-6.5-3.1-.3-.3-1.2-1.5-1.4-1.9-.2-.5 0-.7.2-1 .2-.2.5-.6.7-.9.2-.3.3-.5.5-.9.2-.3.1-.7 0-1-.1-.3-1.2-2.9-1.7-4-.5-1.1-.9-.9-1.2-.9h-1c-.3 0-.9.1-1.3.6-.5.5-1.8 1.7-1.8 4.2s1.8 4.9 2.1 5.2c.3.3 3.5 5.4 8.6 7.6 1.2.5 2.2.8 3 .9 1.3.4 2.5.3 3.4.2 1.1-.2 3-1.2 3.4-2.3.4-1.1.4-2.1.3-2.3-.1-.2-.4-.3-.9-.6Z"/>
</svg>
